<?xml version="1.0" encoding="UTF-8"?>
<svg id="svg" xmlns="http://www.w3.org/2000/svg" xmlns:xlink="http://www.w3.org/1999/xlink" viewBox="0 0 399.57 399.57">
  <defs>
    <style>
      .cls-1 {
        fill: #e00311;
      }

      .cls-2 {
        fill: none;
      }

      .cls-3 {
        clip-path: url(#clippath);
      }
    </style>
    <clipPath id="clippath">
      <rect class="cls-2" width="399.57" height="399.57"/>
    </clipPath>
  </defs>
  <g class="cls-3">
    <g>
      <path d="M62.01,52.36c2.57-.23,7.88-.06,10.61-.05h20.69s67.25,0,67.25,0h117.58s38.98,0,38.98,0c6.26,0,12.53-.03,18.78-.01,2.25,0,4.12.31,6.06,1.51,2.09,1.3,4.04,3.89,4.36,6.36.31,2.41.2,5.74.2,8.23v14.86s0,55.35,0,55.35v174.71c.01,7.53.02,15.07,0,22.6-.02,5.79-3.05,9.58-8.79,10.57-5.99.17-12.57.04-18.6.04H101.38s-24.92,0-24.92,0c-4.55,0-9.16.05-13.7-.05-2.25-.05-4.02-.66-5.83-1.96-1.77-1.28-3.54-3.96-3.72-6.17-.23-2.86-.14-6.26-.15-9.18v-18.15s0-64,0-64v-123.72s0-40.13,0-40.13c0-6.94-.04-13.89.02-20.84.05-5.57,3.45-9.29,8.93-9.99h0Z"/>
      <path class="cls-1" d="M89.1,81.35c21.38,12.64,42.84,26.14,64.11,39.05,8.3,4.95,16.54,9.98,24.73,15.1,3.5,2.15,8.07,4.61,11.31,7.07-1.59,1-3.06,2.04-4.59,3.12-7.04,4.94-14.43,9.69-21.39,14.73.89,1.51,1.95,4.34,2.69,6.07,2.15,5.03,4.23,10.08,6.25,15.16,6.72,16.26,13.53,32.49,20.43,48.67,1.66,3.84,3.14,7.86,4.85,11.7.83,1.87,1.53,3.87,2.57,5.64.9-2.79,2.69-6.88,3.83-9.66l8.76-20.87,23.7-56.67c-1.55-1.47-5.61-4.06-7.58-5.4-3.99-2.77-7.99-5.52-12.01-8.25-1.51-1.02-5.02-3.26-6.11-4.43.79-.76,9.12-5.62,10.28-6.34,4.6-2.83,9.34-5.71,13.94-8.54l53.81-32.77c7.17-4.34,14.87-9.35,22.08-13.43-2.6,5.62-5.51,11.49-7.93,17.14-2.61,6.03-5.65,12.32-8.38,18.33l-20.93,45.69-73.69,160.89c-.96-2.73-2.08-4.67-3.26-7.25l-6.1-13.48-19.72-42.85-59.34-129.63-16.52-36.2c-1.45-3.24-4.79-9.64-5.79-12.58h0Z"/>
    </g>
  </g>
</svg>